#!OML:ASF H:\Male1\Project 1\Capture day 1\Session 1\Male1.ASF
:FULLY-SPECIFIED
:DEGREES
255
root 22.3775 15.4879 0.0537024 181.837 -69.2925 -180.836
lowerback 9.14017 -0.960674 -2.47442
upperback 7.73087 -1.86812 -2.76163
thorax 2.89742 -1.17147 -1.36487
lowerneck -3.36817 8.73513 13.9514
upperneck -2.85606 11.1664 -16.3035
head 1.48295 5.41225 -6.81275
rclavicle 5.1684e-015 7.95139e-015
rhumerus 1.65871 43.5241 -86.798
rradius 130.28
rwrist 0.0915952
rhand -21.3127 33.112
rfingers 7.12502
rthumb 5.07239 3.19275
lclavicle 5.1684e-015 7.95139e-015
lhumerus -5.56097 -20.7961 93.6373
lradius 141.704
lwrist 4.91682
lhand 1.17137 -20.4758
lfingers 7.12502
lthumb 26.7119 7.65884
rfemur -13.56 14.7447 19.9779
rtibia 25.8792
rfoot -17.311 -21.4827
rtoes -29.2894
lfemur -2.11924 -7.18923 -14.8941
ltibia 20.3063
lfoot -24.4832 30.7477
ltoes 1.50957
256
root 22.3763 15.4895 0.0496766 181.447 -70.1681 -180.507
lowerback 9.04144 -0.711935 -2.95983
upperback 7.63257 -1.54612 -1.96156
thorax 2.88456 -1.03786 -0.284897
lowerneck -3.61184 8.63006 13.6682
upperneck -2.47401 11.0431 -16.6854
head 1.6265 5.33307 -6.87735
rclavicle -4.69132e-014 3.97569e-015
rhumerus 1.48895 44.4627 -86.1817
rradius 130.363
rwrist 0.0321157
rhand -21.0707 32.5926
rfingers 7.12502
rthumb 5.30608 2.67903
lclavicle -4.69132e-014 3.97569e-015
lhumerus -6.87142 -20.6911 95.373
lradius 142.515
lwrist 4.39555
lhand 0.636152 -19.3554
lfingers 7.12502
lthumb 26.1996 8.85642
rfemur -13.1984 15.2104 20.1396
rtibia 25.7348
rfoot -17.8422 -22.4894
rtoes -28.5833
lfemur -2.14983 -7.6666 -14.7475
ltibia 20.2031
lfoot -23.9855 30.6432
ltoes 0.468271
257
root 22.374 15.4886 0.0492544 181.081 -71.0882 -180.257
lowerback 8.68335 -0.565453 -2.47703
upperback 7.71808 -1.29955 -1.91579
thorax 3.15619 -0.894639 -0.531702
lowerneck -3.68088 8.18454 13.113
upperneck -2.43554 10.442 -15.8447
head 1.47214 5.04164 -6.56839
rclavicle 1.27222e-014 7.15625e-015
rhumerus 1.33242 44.8983 -86.6559
rradius 130.402
rwrist 0.318907
rhand -20.8742 32.2273
rfingers 7.12502
rthumb 5.49576 2.31858
lclavicle 1.27222e-014 7.15625e-015
lhumerus -7.33004 -21.0258 95.5495
lradius 142.836
lwrist 4.90683
lhand -0.245175 -19.0887
lfingers 7.12502
lthumb 25.3555 9.24563
rfemur -12.8083 15.5683 20.266
rtibia 25.6418
rfoot -18.4086 -23.4064
rtoes -27.6803
lfemur -2.23737 -8.12014 -14.6678
ltibia 20.2899
lfoot -23.4664 30.4951
ltoes -0.635807
258
root 22.3723 15.486 0.05287 181.189 -72.0322 -180.54
lowerback 8.15192 -0.42109 -1.65525
upperback 7.9415 -1.0412 -2.29074
thorax 3.66139 -0.72395 -1.40874
lowerneck -3.97011 7.93292 13.3604
upperneck -2.47597 10.0522 -15.2648
head 1.42656 4.84131 -6.44541
rclavicle 6.75868e-015 2.38542e-015
rhumerus 1.40605 44.7354 -87.3746
rradius 130.405
rwrist 0.472324
rhand -20.5463 32.0445
rfingers 7.12502
rthumb 5.81238 2.14424
lclavicle 6.75868e-015 2.38542e-015
lhumerus -7.00742 -21.5975 94.6426
lradius 143.052
lwrist 5.73798
lhand -0.780393 -18.38
lfingers 7.12502
lthumb 24.8427 10.026
rfemur -12.4651 15.5501 20.1878
rtibia 25.6366
rfoot -18.9271 -23.9848
rtoes -26.7806
lfemur -2.4447 -8.50107 -14.7665
ltibia 20.5863
lfoot -23.0293 30.2243
ltoes -1.5796
259
root 22.3787 15.4772 0.057311 180.83 -72.9642 -180.433
lowerback 7.77012 -0.247725 -0.833447
upperback 8.21249 -0.76241 -2.59355
thorax 4.15183 -0.540501 -2.20878
lowerneck -4.26379 7.55843 13.5083
upperneck -2.6282 9.48406 -14.6456
head 1.31836 4.55197 -6.3083
rclavicle 4.29375e-014 8.74653e-015
rhumerus 1.70698 44.3628 -87.8446
rradius 130.42
rwrist 0.251636
rhand -20.1736 32.2783
rfingers 7.12502
rthumb 6.17224 2.38819
lclavicle 4.29375e-014 8.74653e-015
lhumerus -6.10556 -22.2481 93.4289
lradius 143
lwrist 6.40146
lhand -1.14954 -18.5121
lfingers 7.12502
lthumb 24.4889 9.94225
rfemur -12.1561 15.3808 20.2757
rtibia 25.7735
rfoot -19.3768 -24.3994
rtoes -25.7104
lfemur -2.67449 -8.62788 -14.6448
ltibia 20.9607
lfoot -22.6045 29.598
ltoes -2.41138
260
root 22.3897 15.4636 0.0629982 179.742 -73.9402 -179.544
lowerback 8.04117 -0.103964 -0.370467
upperback 8.1048 -0.546856 -2.42331
thorax 3.89244 -0.409488 -2.29485
lowerneck -4.70352 7.14081 13.3537
upperneck -2.17874 8.90816 -14.2704
head 1.41146 4.25141 -6.18141
rclavicle -7.95139e-016 -1.35174e-014
rhumerus 1.43594 44.3201 -88.1275
rradius 130.573
rwrist -0.0716952
rhand -19.878 32.5327
rfingers 7.12502
rthumb 6.45757 2.65112
lclavicle -7.95139e-016 -1.35174e-014
lhumerus -5.27485 -22.7726 92.7419
lradius 142.888
lwrist 6.29136
lhand -1.05386 -16.9321
lfingers 7.12502
lthumb 24.5806 11.5099
rfemur -11.9956 14.9728 20.5983
rtibia 26.0708
rfoot -19.6135 -24.8166
rtoes -24.9254
lfemur -3.01067 -8.72062 -14.2199
ltibia 21.3602
lfoot -22.3084 28.6671
ltoes -2.67599
261
root 22.3989 15.4485 0.0728069 179.386 -74.9565 -179.454
lowerback 9.61036 0.0418559 -1.02337
upperback 7.19038 -0.387605 -1.60668
thorax 2.07624 -0.357397 -1.06382
lowerneck -5.04866 6.91004 12.5825
upperneck -1.04892 8.69329 -14.0904
head 1.72396 4.13138 -5.98446
rclavicle 7.35503e-015 1.66979e-014
rhumerus -0.475257 44.932 -88.4456
rradius 130.978
rwrist -0.441219
rhand -19.7594 32.3367
rfingers 7.12502
rthumb 6.57213 2.45864
lclavicle 7.35503e-015 1.66979e-014
lhumerus -5.65807 -23.0339 93.5579
lradius 142.775
lwrist 5.48511
lhand -0.46577 -15.9266
lfingers 7.12502
lthumb 25.1442 12.4375
rfemur -11.8611 14.143 20.6404
rtibia 26.4573
rfoot -19.6035 -25.129
rtoes -25.2642
lfemur -3.33664 -8.80812 -14.1078
ltibia 21.816
lfoot -21.8481 27.8598
ltoes -3.7835
262
root 22.404 15.4317 0.0865992 179.904 -75.8905 -180.386
lowerback 15.4634 0.0649423 0.0994397
upperback 3.52829 -0.253966 -2.29968
thorax -4.92927 -0.22808 -2.42709
lowerneck -4.98454 6.20243 12.6615
upperneck 2.87251 8.00446 -12.3022
head 2.68504 3.82296 -5.43989
rclavicle -4.57205e-015 -9.54166e-015
rhumerus -9.07641 44.4993 -95.3341
rradius 131.641
rwrist 0.280994
rhand -19.6138 31.9442
rfingers 7.12502
rthumb 6.7126 2.07059
lclavicle -4.57205e-015 -9.54166e-015
lhumerus -10.6788 -24.5736 94.4234
lradius 143.172
lwrist 5.0827
lhand -0.15968 -17.0883
lfingers 7.12502
lthumb 25.4374 11.2343
rfemur -11.6098 13.2686 20.3966
rtibia 26.8735
rfoot -19.6385 -25.2902
rtoes -25.8966
lfemur -3.50406 -8.6667 -14.3308
ltibia 22.2699
lfoot -21.1541 27.1376
ltoes -5.49714
263
root 22.4058 15.4159 0.0991786 180.257 -76.6516 -181.137
lowerback 9.48236 0.247248 -1.17581
upperback 7.54739 -0.13425 -1.37101
thorax 2.52472 -0.249653 -0.757118
lowerneck -5.67542 6.28694 11.86
upperneck -0.669387 7.84314 -13.5384
head 1.76808 3.6908 -5.726
rclavicle 1.78906e-014 1.15295e-014
rhumerus -0.581201 45.5386 -88.5083
rradius 131.472
rwrist -0.681768
rhand -19.1099 31.388
rfingers 7.12502
rthumb 7.19908 1.53045
lclavicle 1.78906e-014 1.15295e-014
lhumerus -2.54171 -24.2471 91.6271
lradius 142.247
lwrist 5.50458
lhand -0.448229 -18.3417
lfingers 7.12502
lthumb 25.161 10.02
rfemur -11.3302 12.7337 20.2301
rtibia 27.2602
rfoot -19.8346 -25.4676
rtoes -26.0827
lfemur -3.59452 -8.31946 -14.4732
ltibia 22.6804
lfoot -20.6112 26.2275
ltoes -6.11706
264
root 22.4051 15.4018 0.110338 180.504 -77.4116 -181.746
lowerback 9.66687 0.310617 -1.1677
upperback 7.48253 -0.0487834 -1.2853
thorax 2.35603 -0.205317 -0.678038
lowerneck -5.98225 6.05907 11.5941
upperneck -0.226302 7.55045 -13.1459
head 1.88164 3.53924 -5.56493
rclavicle 9.14409e-015 -2.38542e-015
rhumerus -1.32954 45.7986 -89.1214
rradius 131.641
rwrist -0.453342
rhand -18.7178 31.5295
rfingers 7.12502
rthumb 7.57756 1.68528
lclavicle 9.14409e-015 -2.38542e-015
lhumerus -1.33097 -24.7938 90.6813
lradius 142.036
lwrist 5.96961
lhand -0.0406912 -18.1651
lfingers 7.12502
lthumb 25.5514 10.1413
rfemur -10.9931 12.3868 20.1221
rtibia 27.5242
rfoot -20.1599 -25.7169
rtoes -26.0856
lfemur -3.69489 -8.15021 -14.5828
ltibia 23.0943
lfoot -20.2616 25.4035
ltoes -6.54752
265
root 22.4019 15.3918 0.122593 179.992 -78.1951 -181.507
lowerback 9.67856 0.308489 -0.954586
upperback 7.46853 -0.0318479 -1.18936
thorax 2.33497 -0.18813 -0.699261
lowerneck -6.19174 5.85678 11.2235
upperneck 0.124032 7.29778 -12.6192
head 1.94943 3.41509 -5.34706
rclavicle -2.68359e-015 4.77083e-015
rhumerus -1.88748 46.039 -89.6438
rradius 131.751
rwrist -0.413024
rhand -18.3174 31.6898
rfingers 7.12502
rthumb 7.96401 1.85988
lclavicle -2.68359e-015 4.77083e-015
lhumerus -0.376368 -25.3956 89.8157
lradius 142.01
lwrist 6.08092
lhand 0.797602 -17.39
lfingers 7.12502
lthumb 26.3541 10.7987
rfemur -10.6133 12.1952 20.2183
rtibia 27.6174
rfoot -20.5477 -26.06
rtoes -26.0243
lfemur -3.85199 -8.21726 -14.5215
ltibia 23.4933
lfoot -19.8835 24.9285
ltoes -7.86779
266
root 22.3982 15.3855 0.135277 178.419 -78.7791 -180.168
lowerback 9.59958 0.318054 -0.647289
upperback 7.51775 0.00492957 -1.02786
thorax 2.43028 -0.160619 -0.70751
lowerneck -6.39295 5.80895 10.9584
upperneck 0.323919 7.23863 -12.2411
head 2.00728 3.38568 -5.18298
rclavicle -2.01766e-014 1.74931e-014
rhumerus -2.27042 46.31 -90.053
rradius 131.826
rwrist -0.525853
rhand -17.7737 31.5466
rfingers 7.12502
rthumb 8.48877 1.73723
lclavicle -2.01766e-014 1.74931e-014
lhumerus 0.551281 -25.9284 88.982
lradius 142.051
lwrist 6.05098
lhand 1.13188 -17.2412
lfingers 7.12502
lthumb 26.6741 10.8993
rfemur -10.1885 12.203 20.5542
rtibia 27.555
rfoot -20.763 -26.5148
rtoes -25.9303
lfemur -3.90964 -8.34027 -14.2707
ltibia 23.8133
lfoot -19.609 24.6496
ltoes -9.09357
267
root 22.3934 15.3811 0.150648 177.273 -79.2065 -179.343
lowerback 9.81554 0.361861 -0.350003
upperback 7.43914 0.0854909 -1.00211
thorax 2.2314 -0.107028 -0.853067
lowerneck -6.66878 5.81351 10.8485
upperneck 0.785236 7.25249 -11.854
head 2.16814 3.39117 -5.03239
rclavicle -1.68967e-014 4.37326e-015
rhumerus -3.11041 46.4312 -90.8716
rradius 131.979
rwrist -0.650111
rhand -17.1702 31.0941
rfingers 7.12502
rthumb 9.0711 1.30912
lclavicle -1.68967e-014 4.37326e-015
lhumerus 1.25893 -26.5151 88.1629
lradius 142.163
lwrist 5.88412
lhand 0.983947 -18.0862
lfingers 7.12502
lthumb 26.5325 10.0757
rfemur -9.63944 12.27 20.7552
rtibia 27.3698
rfoot -20.9111 -26.9677
rtoes -25.2013
lfemur -3.7575 -8.66539 -14.23
ltibia 24.03
lfoot -19.5888 24.553
ltoes -9.47456
268
root 22.3844 15.3889 0.166265 177.224 -79.6313 -179.24
lowerback 9.98733 0.388165 -0.140543
upperback 6.99321 0.163243 -1.04236
thorax 1.67193 -0.0469454 -1.01657
lowerneck -6.76432 5.73953 10.4932
upperneck 1.38855 7.19021 -11.0684
head 2.30747 3.37471 -4.72732
rclavicle -5.06901e-015 -1.23246e-014
rhumerus -4.61561 46.5033 -92.1505
rradius 132.199
rwrist -0.679707
rhand -16.7406 30.533
rfingers 7.12502
rthumb 9.48567 0.766516
lclavicle -5.06901e-015 -1.23246e-014
lhumerus 1.33527 -27.0541 87.6981
lradius 142.431
lwrist 5.59248
lhand 1.03047 -18.8904
lfingers 7.12502
lthumb 26.577 9.26477
rfemur -9.44244 12.2845 20.701
rtibia 27.0991
rfoot -21.1437 -27.3283
rtoes -23.8139
lfemur -3.89143 -9.03255 -14.3287
ltibia 24.1027
lfoot -19.4701 24.6323
ltoes -9.99291
269
root 22.3772 15.3995 0.18315 177.55 -80.0923 -179.461
lowerback 9.5818 0.360572 -0.0371678
upperback 6.9396 0.149345 -1.06511
thorax 1.83722 -0.0443776 -1.09595
lowerneck -7.08643 5.64201 10.2679
upperneck 1.90487 7.06895 -10.686
head 2.47556 3.3126 -4.56756
rclavicle -1.22253e-014 1.15295e-014
rhumerus -4.91835 46.5439 -92.5853
rradius 132.34
rwrist -0.541139
rhand -16.3237 30.1578
rfingers 7.12502
rthumb 9.88782 0.409998
lclavicle -1.22253e-014 1.15295e-014
lhumerus 2.09161 -27.1102 87.0098
lradius 142.688
lwrist 5.73013
lhand 1.68649 -19.1218
lfingers 7.12502
lthumb 27.2047 8.93666
rfemur -9.27503 12.1517 20.5509
rtibia 26.7857
rfoot -21.3353 -27.5649
rtoes -22.9413
lfemur -4.01166 -9.55436 -14.517
ltibia 24.0495
lfoot -19.3594 24.8108
ltoes -10.2329
